HIERARCHY
ROOT Hips
{
  OFFSET 0 0 0
  CHANNELS 6 Xposition Yposition Zposition Zrotation Yrotation Xrotation
  JOINT LeftThigh
  {
    OFFSET 8.409438 0 -5.917753
    CHANNELS 3 Zrotation Yrotation Xrotation
    JOINT LeftLeg
    {
      OFFSET 0 0 -42.358652
      CHANNELS 3 Zrotation Yrotation Xrotation
      JOINT LeftFoot
      {
        OFFSET 0 0 -39.357303
        CHANNELS 3 Zrotation Yrotation Xrotation
      }
    }
  }
  JOINT RightThigh
  {
    OFFSET -8.409438 0 -5.917753
    CHANNELS 3 Zrotation Yrotation Xrotation
    JOINT RightLeg
    {
      OFFSET 0 0 -42.358652
      CHANNELS 3 Zrotation Yrotation Xrotation
      JOINT RightFoot
      {
        OFFSET 0 0 -39.357303
        CHANNELS 3 Zrotation Yrotation Xrotation
      }
    }
  }
  JOINT SpineLow
  {
    OFFSET 0 0 4.719101
    CHANNELS 3 Zrotation Yrotation Xrotation
    JOINT SpineMid
    {
      OFFSET 0 0 12.899191
      CHANNELS 3 Zrotation Yrotation Xrotation
      JOINT Chest
      {
        OFFSET 0 0 12.899191
        CHANNELS 3 Zrotation Yrotation Xrotation
        JOINT LeftShoulder
        {
          OFFSET 7.550562 1.41573 9.438202
          CHANNELS 3 Zrotation Yrotation Xrotation
          JOINT LeftArm
          {
            OFFSET 9.155056 0 4.247191
            CHANNELS 3 Zrotation Yrotation Xrotation
            JOINT LeftForearm
            {
              OFFSET 0 0 25.771955
              CHANNELS 3 Zrotation Yrotation Xrotation
              JOINT LeftHand
              {
                OFFSET 0 0 25.197169
                CHANNELS 3 Zrotation Yrotation Xrotation
              }
            }
          }
        }
        JOINT RightShoulder
        {
          OFFSET -7.550562 1.41573 9.438202
          CHANNELS 3 Zrotation Yrotation Xrotation
          JOINT RightArm
          {
            OFFSET -9.155056 0 4.247191
            CHANNELS 3 Zrotation Yrotation Xrotation
            JOINT RightForearm
            {
              OFFSET 0 0 -25.771955
              CHANNELS 3 Zrotation Yrotation Xrotation
              JOINT RightHand
              {
                OFFSET 0 0 -25.197169
                CHANNELS 3 Zrotation Yrotation Xrotation
              }
            }
          }
        }
        JOINT Neck
        {
          OFFSET 0 0 15.101124
          CHANNELS 3 Zrotation Yrotation Xrotation
          JOINT Head
          {
            OFFSET 0 0 11.325843
            CHANNELS 3 Zrotation Yrotation Xrotation
            End Site
            {
              OFFSET 0 0 14.157303
            }
          }
        }
      }
    }
  }
}
MOTION
Frames: 16
Frame Time: 0.0
0.0  93.25843  0.0  -6.116436  19.96588  -90.119772  2.758597  -19.134738  -7.40604  -11.762221  1.327278  12.003489  2.756346  0.758362  2.334771  -26.014182  -2.035364  -3.995363  -22.486737  9.295991  7.241306  3.543488  2.566947  0.356933  3.632284  -1.725251  0.23162  9.92753  -4.738305  0.372977  9.92753  -4.738306  0.372977  -4.784116  27.985991  3.613042  -176.052371  28.275261  -170.207713  -3.70064  20.839419  112.10583  23.473952  5.136639  -12.04928  -4.07948  -3.556765  28.273045  60.606541  51.301989  27.149746  -18.143817  19.834761  -62.116047  60.04943  -14.687087  38.908736  -32.869647  0.826814  0.197449  -24.652074  0.611581  0.193298  
0.0  93.25843  0.0  -6.068317  16.153006  -89.840608  5.036579  -18.829324  -7.080224  -11.218465  1.121532  12.236814  2.988302  0.938194  2.438014  -24.639064  -2.249566  -4.88842  -21.553204  9.444682  7.9284  3.875483  2.706046  0.350442  4.496572  -1.576216  0.251934  12.290632  -4.338047  0.393717  12.290631  -4.338047  0.393717  -6.529855  27.228522  5.008846  -171.562375  27.040529  -171.442772  -6.743836  27.983266  110.608786  15.642917  -5.58739  -8.73145  -4.111137  -4.986302  27.978589  64.235178  55.046349  28.05475  -11.735604  17.625105  -47.697269  57.433148  -19.666219  34.427087  -33.884377  0.836495  0.825079  -25.414008  0.583683  0.667709  
0.0  93.25843  0.0  -6.092274  12.303661  -89.538783  7.040442  -18.581206  -6.809962  -10.621417  1.015061  12.63516  3.177684  1.071222  2.410017  -23.664872  -2.582672  -5.792107  -20.510609  9.645028  8.503058  4.31842  2.765153  0.361129  5.314297  -1.495226  0.218206  14.529784  -4.112184  0.265652  14.529784  -4.112184  0.265652  -8.277615  26.416957  5.961177  -170.680911  23.405367  -174.010256  -12.244607  35.549362  106.302061  10.976741  -14.072266  -3.26242  -4.925893  -6.756806  28.895988  71.252712  59.132218  30.526288  -4.892315  14.875916  -31.01996  55.936856  -24.387004  23.833369  -34.489524  1.408984  1.500521  -25.869464  0.975613  1.209603  
0.0  93.25843  0.0  -6.113519  9.667516  -89.522159  7.559438  -18.408737  -6.462424  -9.874316  1.0233  13.311189  3.778554  1.190298  2.622022  -24.046243  -2.973332  -6.214096  -19.473497  9.94086  8.683491  4.861348  2.73872  0.429196  5.447358  -1.623652  0.270881  14.892397  -4.473043  0.371754  14.892397  -4.473043  0.371754  -6.249614  26.415024  6.693433  -171.967367  18.063437  -176.199633  -16.380079  42.305848  101.943064  16.828173  -16.707975  -0.640977  -1.890699  -8.499713  30.682006  79.250727  64.600697  34.937584  5.955018  7.745711  -13.511963  53.182496  -26.24184  12.670434  -32.985341  2.646787  1.536027  -24.74139  1.908697  1.299513  
0.0  93.25843  0.0  -6.063299  7.994839  -89.730347  7.120034  -18.386871  -6.156815  -6.868525  0.93015  15.75805  2.171073  1.118276  1.330809  -25.429405  -3.034026  -6.392925  -18.069745  10.100852  8.85998  5.389183  2.742646  0.448206  5.354241  -1.954084  0.23099  14.646154  -5.362201  0.196298  14.646154  -5.362201  0.196298  -2.119997  27.284233  8.945552  -173.576771  12.809234  -177.052145  -18.811695  47.983714  100.907757  31.471533  -14.34657  -2.998527  1.104681  -9.821381  32.200487  82.516318  67.902339  36.873771  15.008385  -0.948813  -2.643579  51.97184  -26.627081  7.549861  -30.893232  4.418353  1.450376  -23.168984  3.250279  1.315318  
0.0  93.25843  0.0  -6.001397  7.192154  -89.841276  6.063446  -18.617778  -6.218014  -5.838044  1.419738  16.866098  2.455801  1.147265  1.399504  -27.143828  -2.940002  -6.612688  -16.535528  10.207118  9.024419  5.805086  2.556653  0.458523  5.529895  -2.216947  0.053486  15.149509  -6.03553  -0.361862  15.14951  -6.03553  -0.361862  0.067635  27.599073  11.140385  -174.04537  11.780187  -177.710988  -17.988636  46.701829  102.809069  33.980381  -13.744828  -4.990051  1.959297  -10.211834  31.991846  76.640256  63.529492  34.908613  13.56353  5.169989  3.163962  58.772773  -28.515181  -0.664482  -30.054637  5.288634  1.676264  -22.539553  3.895221  1.521791  
0.0  93.25843  0.0  -6.075081  6.87868  -89.559344  5.313559  -18.971504  -6.939247  -5.163044  1.920748  17.964171  2.676208  1.190507  1.338347  -28.230937  -3.101017  -6.977594  -15.292179  10.144628  9.132759  5.974675  2.316552  0.56797  5.842698  -2.284594  -0.042269  16.017903  -6.192519  -0.667616  16.017905  -6.19252  -0.667615  -0.116456  28.093532  10.346725  -171.09202  15.37191  -178.038835  -14.563106  42.551016  103.87713  27.010899  -15.8584  -5.386814  1.688864  -10.050585  30.540653  66.723584  62.397564  29.033516  13.44472  8.140068  0.682406  54.087932  -28.254062  4.168167  -30.109411  4.594182  1.595342  -22.582036  3.376747  1.427081  
0.0  93.25843  0.0  -6.150197  6.730222  -89.185654  5.235373  -19.167427  -7.824095  -4.94315  2.271726  18.763252  2.753237  1.179364  1.218494  -28.399249  -3.224317  -7.381691  -14.514025  9.808464  9.496239  5.858099  2.168294  0.651356  6.091233  -2.199722  -0.154665  16.705413  -5.929873  -0.974931  16.705415  -5.929873  -0.974931  0.625883  29.038183  10.517953  -168.267231  18.369872  -175.977368  -11.711595  41.707631  105.235004  26.10092  -15.796013  -6.732183  0.713189  -7.697164  32.239869  56.443227  64.441295  19.162208  8.828983  7.375119  -6.270767  47.559771  -23.412284  12.999813  -30.389068  3.301804  1.867458  -22.79577  2.390448  1.569403  
0.0  93.25843  0.0  -6.252584  6.326049  -88.865802  6.243495  -19.113897  -8.552154  -5.353647  2.319101  19.048158  2.83059  1.17731  1.127725  -27.665432  -3.283774  -7.66551  -14.382714  9.441166  9.901783  5.580662  2.100808  0.668804  6.155306  -2.111899  -0.206913  16.881435  -5.677005  -1.100059  16.881434  -5.677005  -1.100059  2.091221  30.114239  11.340715  -168.12022  18.554642  -173.229982  -11.819643  40.567156  104.897638  27.045935  -15.171538  -6.869737  0.367363  -5.42804  34.18708  55.549884  64.192932  15.528014  -1.139905  5.360312  -12.981199  50.490906  -19.902773  20.444658  -30.192731  2.319576  2.249992  -22.65032  1.633152  1.807326  
0.0  93.25843  0.0  -6.357866  5.642932  -88.716614  8.20781  -18.954811  -8.925126  -6.127903  2.175573  18.854596  2.653934  1.231863  1.047571  -26.411572  -3.269533  -7.703725  -14.86179  9.296431  9.864044  5.303392  2.207538  0.584941  5.981838  -2.08468  -0.156638  16.400886  -5.619425  -0.941713  16.400887  -5.619425  -0.941713  0.76793  30.634132  8.681266  -167.72433  16.951163  -173.082642  -13.554227  38.829598  104.20434  26.52104  -15.339846  -6.924368  0.587915  -4.975729  33.592109  58.581683  62.554654  18.510672  -4.941238  7.640025  -18.904887  55.865316  -21.567217  23.226494  -29.221317  2.207668  2.419941  -21.922391  1.544133  1.925712  
0.0  93.25843  0.0  -6.303931  5.079385  -88.788944  10.132737  -18.807044  -8.77104  -6.847329  2.076153  18.356837  2.207355  1.305869  0.919492  -25.239071  -3.207168  -7.526755  -15.678511  9.561298  9.572735  5.262024  2.209246  0.565749  5.536007  -2.1005  -0.084104  15.174146  -5.687623  -0.710186  15.174145  -5.687623  -0.710185  -0.085586  31.616611  6.919272  -167.488332  15.721008  -172.603471  -14.600058  38.815387  104.181819  27.376115  -15.496405  -7.740504  0.730016  -4.820497  32.065794  71.005815  60.972401  27.756905  -4.121825  10.420701  -19.217407  52.691535  -21.537705  23.178825  -27.364769  3.008516  2.555711  -20.53182  2.147011  2.05622  
0.0  93.25843  0.0  -6.020048  4.438274  -88.836672  11.873144  -18.579934  -8.444412  -7.464488  2.081436  17.747208  1.901465  1.334125  0.908303  -24.054394  -3.153124  -7.382404  -16.257169  10.038448  9.365427  5.319769  2.224316  0.530177  4.982355  -2.187459  -0.169885  13.667906  -5.914922  -0.914684  13.667906  -5.914922  -0.914684  1.519963  31.990651  6.727585  -168.442269  15.334962  -172.973338  -15.374954  40.609639  103.210926  29.696381  -14.438706  -7.790985  1.268396  -5.410867  31.803422  77.9167  59.809687  31.710095  -2.25188  12.497307  -17.030009  47.529186  -19.473862  23.460707  -25.115369  4.681113  3.156142  -18.850755  3.387992  2.563869  
0.0  93.25843  0.0  -5.449014  3.518463  -88.756807  13.372953  -18.162087  -8.170187  -7.801876  2.152672  17.270173  1.57239  1.309228  0.938322  -22.905111  -2.937572  -7.547442  -16.209414  10.456862  9.431085  5.220836  2.295769  0.496597  4.618073  -2.269574  -0.307224  12.685296  -6.118746  -1.272932  12.685295  -6.118746  -1.272931  2.64076  32.280026  7.224514  -169.376479  15.712857  -173.223377  -16.027728  41.742052  101.720798  30.854223  -13.279083  -7.263995  1.198488  -5.481433  31.862037  75.516904  58.80379  28.385278  -1.475008  13.428559  -17.338748  47.694322  -17.487558  24.829542  -23.359711  6.495259  3.928294  -17.543587  4.729788  3.198013  
0.0  93.25843  0.0  -5.003347  2.499512  -88.93258  14.125525  -17.986461  -7.66182  -7.589868  2.230954  17.084929  1.382382  1.248111  1.103591  -22.107311  -2.700004  -7.578828  -15.73681  10.667533  9.702124  5.051262  2.438861  0.471974  4.470908  -2.341199  -0.387891  12.2926  -6.302227  -1.49317  12.2926  -6.302227  -1.49317  1.591453  32.610214  7.413928  -170.158992  16.246157  -173.447741  -16.467298  41.152919  100.720991  30.594438  -12.81085  -6.609086  0.659065  -5.750428  31.534478  70.42053  57.627901  24.093533  -1.858698  13.482852  -19.265909  51.216465  -16.073862  26.086294  -22.326395  7.79538  4.650504  -16.779465  5.686213  3.774997  
0.0  93.25843  0.0  -4.758458  1.650207  -89.363068  13.843666  -18.044894  -6.900517  -6.858543  2.225836  17.231667  1.070379  1.215505  1.107543  -21.939215  -2.5313  -7.331228  -15.138565  10.799967  9.908692  5.011187  2.509697  0.488719  4.4145  -2.394552  -0.447839  12.146195  -6.437989  -1.661542  12.146196  -6.437989  -1.661541  -0.10493  32.658356  7.928763  -171.307252  16.482264  -173.708509  -16.720642  39.028754  100.281847  29.430961  -12.915981  -6.387154  0.22166  -6.265794  31.850981  64.683824  57.166934  19.693513  0.024744  14.045606  -20.55584  53.171537  -15.276774  26.722148  -21.740134  8.489201  5.371729  -16.351507  6.185936  4.332034  
0.0  93.25843  0.0  -4.595253  0.745998  -89.69927  13.117428  -18.064831  -6.256913  -5.921673  2.227716  17.565484  1.082642  1.192822  1.213238  -22.222784  -2.38582  -7.188509  -14.473264  10.835872  10.030425  5.17517  2.498486  0.541691  4.329861  -2.465022  -0.520956  11.92483  -6.619178  -1.866099  11.92483  -6.619178  -1.866099  -1.003964  32.842332  8.721416  -172.519496  16.559802  -174.275687  -16.945033  36.360837  100.203564  27.234885  -13.848759  -6.553743  0.100183  -6.214435  32.771226  62.853629  57.180943  18.0391  2.456286  15.077929  -20.64438  53.116342  -15.191968  26.224565  -21.042046  8.935478  6.015371  -15.839548  6.504742  4.819152  
